<svg width="21" height="23" viewBox="0 0 21 23" fill="none" xmlns="http://www.w3.org/2000/svg">
  <path fill-rule="evenodd" clip-rule="evenodd"
    d="M1.41986 14.3301L5.63974 7.78967C6.17093 6.92246 7.32853 6.64292 8.40318 6.65827L9.66428 6.6915L2.23328 18.6087L3.10922 19.113L10.6292 6.70362L13.9532 6.6915L5.73741 20.6262L8.88207 22.4366C8.986 22.4958 9.07866 22.5482 9.15471 22.591C9.27244 22.657 9.35271 22.7011 9.38102 22.7149C9.60451 22.8235 9.92602 22.8866 10.2158 22.8866C10.4814 22.8866 10.7406 22.8379 10.9857 22.7418L19.576 17.7671C20.0691 17.385 20.3592 16.8089 20.3852 16.1849V6.67434C20.3575 5.97922 19.981 5.34296 19.3915 4.97245L11.1283 0.220394C10.5451 -0.0732298 9.8166 -0.0736522 9.23231 0.220253C9.1633 0.255037 1.19646 4.87556 1.19646 4.87556C1.0862 4.92837 0.980012 4.99132 0.880166 5.06286C0.353897 5.44013 0.0330942 6.02625 0 6.67011V16.5115L1.41986 14.3301ZM14.4522 7.63448L12.7715 10.4865L17.1449 17.5597L18.7262 16.6433C18.8812 16.5174 18.9901 16.1994 19 16L18.9826 14.6906L14.4522 7.63448ZM10.2558 14.7676L13.4127 19.7226L16.329 18.0324L12.183 11.4974L10.2558 14.7676Z"
    fill="#787878" />
</svg>