<svg width="24" height="21" viewBox="0 0 24 21" fill="none" xmlns="http://www.w3.org/2000/svg">
  <path
    d="M2.45047 20.949H6.32674C7.2394 20.949 7.69571 20.949 8.10297 20.8362C8.54948 20.7035 8.95674 20.4681 9.29531 20.1442C9.60623 19.848 9.8306 19.4553 10.2732 18.6807L10.2865 18.6575L15.3139 9.7705C15.7604 8.99034 15.9812 8.59779 16.0793 8.18563C16.1872 7.73912 16.1872 7.26808 16.0793 6.82157C15.9819 6.41252 15.7589 6.02279 15.319 5.25425L13.3414 1.80204C12.9341 1.08566 12.728 0.72747 12.468 0.594997C12.1883 0.452709 11.8546 0.452709 11.575 0.594997C11.3149 0.72747 11.1088 1.08566 10.7016 1.80204L1.13057 18.6723C0.728233 19.3788 0.527036 19.7322 0.54177 20.0216C0.561398 20.3357 0.723313 20.6203 0.988286 20.7921C1.23361 20.949 1.63595 20.949 2.45047 20.949Z"
    fill="#787878" />
  <path
    d="M21.6699 20.949H16.1156C15.2962 20.949 14.8841 20.949 14.6436 20.7921C14.3787 20.6203 14.2167 20.3309 14.1971 20.0168C14.1825 19.7296 14.3853 19.3796 14.791 18.6791L14.8006 18.6626L17.5729 13.9031C17.9802 13.2014 18.1862 12.8531 18.4414 12.7206C18.7209 12.5783 19.0499 12.5783 19.3295 12.7206C19.5828 12.8496 19.7801 13.1831 20.1706 13.8436L20.1712 13.8446L20.2029 13.8982L22.985 18.6577C22.9986 18.6811 23.0119 18.7042 23.0252 18.7268C23.4108 19.3923 23.6076 19.732 23.5936 20.012C23.5787 20.3258 23.4119 20.6155 23.147 20.7873C22.9015 20.949 22.4893 20.949 21.6699 20.949Z"
    fill="#787878" />
</svg>