<svg width="22" height="24" viewBox="0 0 22 24" fill="none" xmlns="http://www.w3.org/2000/svg">
  <path fill-rule="evenodd" clip-rule="evenodd"
    d="M10.9998 2.7153L7.05633 4.99065L4.70536 3.63414L10.9998 0L17.2943 3.63414L14.9433 4.99065L10.9998 2.7153ZM2.95936 7.35764V9.89421L0.608398 8.53771V6.00114L3.02352 4.60568L5.37449 5.96218L2.95936 7.35764ZM21.3913 8.53771V6.00114L18.9762 4.60568L16.6252 5.96218L19.0403 7.35764V9.89421L21.3913 8.53771ZM14.9433 6.93375L17.3584 8.3292V10.8658L13.3485 13.1824V17.9874L10.9998 19.3439L8.65115 17.9874V13.1824L4.64122 10.8658V8.3292L7.05634 6.93375L10.9998 9.21139L14.9433 6.93375ZM17.3585 12.8089V15.6708L15.0304 17.0159V14.1516L17.3585 12.8089ZM4.64122 15.6708L6.96927 17.0159V14.1516L4.64122 12.8089V15.6708ZM10.9998 21.287L13.3485 19.9305V22.6435L10.9998 24L8.65113 22.6435V19.9305L10.9998 21.287ZM13.2615 5.96219L10.9999 4.6561L8.73829 5.96219L10.9999 7.26829L13.2615 5.96219ZM19.0403 16.6423V11.8373L21.3913 10.4808V17.9988L15.0304 21.6719V18.9589L19.0403 16.6423ZM6.9693 18.9589L2.95936 16.6423V11.8373L0.608398 10.4808V17.9988L6.9693 21.6719V18.9589Z"
    fill="#787878" />
</svg>