<svg width="22" height="20" viewBox="0 0 22 20" fill="none" xmlns="http://www.w3.org/2000/svg">
  <path
    d="M16.6937 6.26224C16.2943 6.03399 15.7807 6.03399 15.3242 6.26224L12.1287 8.14531L9.96031 9.34363L6.82186 11.2267C6.42242 11.455 5.90885 11.455 5.45235 11.2267L2.99865 9.74307C2.59921 9.51482 2.31389 9.05831 2.31389 8.54475V5.69161C2.31389 5.23511 2.54215 4.7786 2.99865 4.49329L5.45235 3.06672C5.85179 2.83847 6.36535 2.83847 6.82186 3.06672L9.27556 4.55035C9.675 4.7786 9.96031 5.23511 9.96031 5.74867V7.63174L12.1287 6.37636V4.43623C12.1287 3.97972 11.9004 3.52322 11.4439 3.23791L6.87892 0.555954C6.47948 0.327703 5.96591 0.327703 5.50941 0.555954L0.830262 3.29497C0.373759 3.52322 0.145508 3.97972 0.145508 4.43623V9.80013C0.145508 10.2566 0.373759 10.7131 0.830262 10.9985L5.45235 13.6804C5.85179 13.9087 6.36535 13.9087 6.82186 13.6804L9.96031 11.8544L12.1287 10.599L15.2672 8.773C15.6666 8.54475 16.1802 8.54475 16.6367 8.773L19.0904 10.1996C19.4898 10.4278 19.7751 10.8843 19.7751 11.3979V14.251C19.7751 14.7075 19.5469 15.164 19.0904 15.4494L16.6937 16.8759C16.2943 17.1042 15.7807 17.1042 15.3242 16.8759L12.8705 15.4494C12.4711 15.2211 12.1858 14.7646 12.1858 14.251V12.425L10.0174 13.6804V15.5635C10.0174 16.02 10.2456 16.4765 10.7021 16.7618L15.3242 19.4437C15.7237 19.672 16.2372 19.672 16.6937 19.4437L21.3158 16.7618C21.7153 16.5335 22.0006 16.077 22.0006 15.5635V10.1425C22.0006 9.68601 21.7723 9.2295 21.3158 8.94419L16.6937 6.26224Z"
    fill="#787878" />
</svg>