<svg width="20" height="19" viewBox="0 0 20 19" fill="none" xmlns="http://www.w3.org/2000/svg">
  <path
    d="M19.897 14.3191L16.5954 17.8068C16.5236 17.8826 16.4368 17.943 16.3403 17.9843C16.2438 18.0256 16.1397 18.0468 16.0345 18.0468H0.383293C0.308612 18.0468 0.235558 18.0253 0.173109 17.985C0.110659 17.9446 0.0615327 17.8872 0.0317656 17.8197C0.00199848 17.7523 -0.0071125 17.6777 0.00555212 17.6052C0.0182167 17.5327 0.0521052 17.4654 0.103054 17.4117L3.40715 13.9239C3.47873 13.8484 3.56529 13.7881 3.66147 13.7468C3.75766 13.7055 3.86143 13.6841 3.96636 13.684H19.6167C19.6914 13.684 19.7644 13.7055 19.8269 13.7458C19.8893 13.7861 19.9384 13.8436 19.9683 13.911C19.998 13.9785 20.0071 14.053 19.9945 14.1255C19.9818 14.198 19.9479 14.2653 19.897 14.3191ZM16.5954 7.2958C16.5236 7.22004 16.4368 7.15963 16.3403 7.11835C16.2438 7.07708 16.1397 7.0558 16.0345 7.05586H0.383293C0.308612 7.05586 0.235558 7.07734 0.173109 7.11769C0.110659 7.15803 0.0615327 7.21545 0.0317656 7.28291C0.00199848 7.35038 -0.0071125 7.42494 0.00555212 7.49744C0.0182167 7.56992 0.0521052 7.63719 0.103054 7.69099L3.40715 11.1787C3.47873 11.2543 3.56529 11.3145 3.66147 11.3558C3.75766 11.3971 3.86143 11.4185 3.96636 11.4187H19.6167C19.6914 11.4187 19.7644 11.3972 19.8269 11.3568C19.8893 11.3165 19.9384 11.2591 19.9683 11.1916C19.998 11.1241 20.0071 11.0496 19.9945 10.9771C19.9818 10.9046 19.9479 10.8373 19.897 10.7835L16.5954 7.2958ZM0.383293 4.79055H16.0345C16.1397 4.79059 16.2438 4.76933 16.3403 4.72804C16.4368 4.68676 16.5236 4.62635 16.5954 4.55059L19.897 1.06286C19.9479 1.00908 19.9818 0.941806 19.9945 0.869312C20.0071 0.796817 19.998 0.722259 19.9683 0.654796C19.9384 0.587333 19.8893 0.529904 19.8269 0.489566C19.7644 0.449227 19.6914 0.427737 19.6167 0.427734H3.96636C3.86143 0.42791 3.75766 0.449297 3.66147 0.490572C3.56529 0.531847 3.47873 0.592129 3.40715 0.66769L0.103906 4.15542C0.0530061 4.20914 0.0191326 4.27636 0.00643931 4.34875C-0.00625404 4.42117 0.00278464 4.49567 0.0324467 4.5631C0.0621089 4.63054 0.111105 4.68796 0.173427 4.72836C0.235749 4.76877 0.308685 4.79037 0.383293 4.79055Z"
    fill="#787878" />
</svg>