<svg width="248" height="65" viewBox="0 0 248 65" fill="none" xmlns="http://www.w3.org/2000/svg">
  <path fill-rule="evenodd" clip-rule="evenodd"
    d="M15.8812 15.8808C24.832 6.93 39.3442 6.93 48.295 15.8808L51.5364 19.1222L51.6192 19.0394L64.665 32.0852L51.6166 45.1335L51.5364 45.0533L48.295 48.2947C42.86 53.7297 35.3745 55.8646 28.3287 54.6992L30.1913 48.882L15.9002 59.8024C27.6616 66.6828 42.8638 65.4449 53.3872 56.089L53.507 56.2087L71.1477 38.5679L98.0067 58.9445L77.6305 32.0852L98.0045 5.22864L71.1478 25.6024L53.5092 7.96385L53.3868 8.08624C40.7856 -3.11669 21.4759 -2.67941 9.39838 9.39806C-3.1328 21.9292 -3.13279 42.2463 9.39839 54.7775C9.54992 54.929 9.70259 55.0787 9.85637 55.2266L17.2724 49.5772C16.7955 49.1724 16.3313 48.7449 15.8812 48.2947C6.93032 39.3439 6.93032 24.8317 15.8812 15.8808ZM38.9641 32.0881C38.9641 35.8856 35.8856 38.9641 32.0881 38.9641C28.2906 38.9641 25.2121 35.8856 25.2121 32.0881C25.2121 28.2906 28.2906 25.2121 32.0881 25.2121C35.8856 25.2121 38.9641 28.2906 38.9641 32.0881Z"
    fill="#374151" />
</svg>