<svg width="128" height="128" viewBox="0 0 128 128" fill="none" xmlns="http://www.w3.org/2000/svg">
  <rect width="128" height="128" rx="64" fill="#374151" />
  <path fill-rule="evenodd" clip-rule="evenodd"
    d="M36.362 52.3652C44.2301 44.4972 56.9866 44.4972 64.8547 52.3652L67.7039 55.2145L67.7774 55.141L79.2444 66.608L67.7739 78.0786L67.7039 78.0086L64.8547 80.8578C60.0767 85.6358 53.496 87.5123 47.302 86.4873L48.9405 81.3698L36.3754 90.9714C46.7147 97.0218 60.0802 95.9342 69.3315 87.7085L69.4363 87.8133L84.943 72.3066L108.553 90.2181L90.6415 66.608L108.551 43.0005L84.943 60.9095L69.4382 45.4048L69.3299 45.5131C58.2532 35.6659 41.2798 36.0505 30.6635 46.6667C19.6483 57.6819 19.6483 75.5411 30.6635 86.5563C30.7958 86.6887 30.9291 86.8194 31.0634 86.9485L37.5821 81.9828C37.1639 81.6276 36.7568 81.2526 36.362 80.8578C28.494 72.9898 28.494 60.2332 36.362 52.3652ZM56.651 66.6072C56.651 69.9453 53.9449 72.6514 50.6068 72.6514C47.2687 72.6514 44.5626 69.9453 44.5626 66.6072C44.5626 63.269 47.2687 60.563 50.6068 60.563C53.9449 60.563 56.651 63.269 56.651 66.6072Z"
    fill="white" />
</svg>