<svg width="8" height="14" viewBox="0 0 8 14" fill="none" xmlns="http://www.w3.org/2000/svg">
  <path
    d="M15 14C15.5523 14 16 13.5523 16 13L16 1C16 0.447716 15.5523 -3.91405e-08 15 -8.74228e-08C14.4477 -1.35705e-07 14 0.447716 14 1L14 13C14 13.5523 14.4477 14 15 14Z"
    fill="currentColor" />
  <path
    d="M4.70711 4.70711C5.09763 4.31658 5.09763 3.68342 4.70711 3.29289C4.31658 2.90237 3.68342 2.90237 3.29289 3.29289L0.292894 6.29289C0.105358 6.48043 6.35145e-07 6.73478 6.11959e-07 7C5.88774e-07 7.26521 0.105358 7.51957 0.292894 7.70711L3.29289 10.7071C3.68342 11.0976 4.31658 11.0976 4.70711 10.7071C5.09763 10.3166 5.09763 9.68342 4.70711 9.29289L3.41421 8L11 8C11.5523 8 12 7.55228 12 7C12 6.44771 11.5523 6 11 6L3.41421 6L4.70711 4.70711Z"
    fill="currentColor" />
</svg>
