<svg width="75" height="8" viewBox="0 0 75 8" fill="none" xmlns="http://www.w3.org/2000/svg">
  <path opacity="0.5"
    d="M11.4384 5.59234C8.71625 5.25525 5.97817 4.91618 2.80639 4.63178C-1.82499 3.80204 3.52268 2.76118 4.64718 2.69316C5.77168 2.62515 12.1681 2.08485 15.8902 1.76171C19.6124 1.43858 27.0381 0.845047 38.806 0.845048C50.9811 0.845049 61.7294 1.90463 64.3389 2.08485C66.6055 2.24138 68.6903 2.31906 71.2775 2.52313C72.0839 2.58673 72.9247 2.64272 73.6344 3.03088C74.8631 3.70298 72.9935 4.3796 70.5521 4.91092C67.6174 5.54962 62.0869 6.25947 58.7218 6.48206C55.3567 6.70464 48.3835 7.20258 36.6156 7.20258C24.4405 7.20258 17.9856 6.40317 11.4384 5.59234Z"
    fill="#8B5CF6" fill-opacity="0.5" />
</svg>