<svg width="48" height="48" viewBox="0 0 48 48" fill="none" xmlns="http://www.w3.org/2000/svg">
<rect width="48" height="48" rx="8" fill="#5AC5DD" fill-opacity="0.1"/>
<path d="M21.6635 29H26.3364M23.9999 15V16M30.3639 17.636L29.6568 18.3431M33 23.9999H32M16 23.9999H15M18.3431 18.3431L17.636 17.636M20.4644 27.5356C18.5118 25.5829 18.5118 22.4171 20.4644 20.4645C22.417 18.5119 25.5829 18.5119 27.5355 20.4645C29.4881 22.4171 29.4881 25.5829 27.5355 27.5356L26.9884 28.0827C26.3555 28.7155 25.9999 29.5739 25.9999 30.469V31C25.9999 32.1046 25.1045 33 23.9999 33C22.8954 33 21.9999 32.1046 21.9999 31V30.469C21.9999 29.5739 21.6444 28.7155 21.0115 28.0827L20.4644 27.5356Z" stroke="#18ACC6" stroke-width="2" stroke-linecap="round" stroke-linejoin="round"/>
</svg>
