<svg width="32" height="32" viewBox="0 0 32 32" fill="none" xmlns="http://www.w3.org/2000/svg">
  <rect y="3.05176e-05" width="32" height="32" rx="5.33333" fill="#D1D5DB" fill-opacity="0.3" />
  <path
    d="M17.7081 15.9997C17.7081 20.1817 14.3409 23.5719 10.1874 23.5719C6.03398 23.5719 2.6665 20.181 2.6665 15.9997C2.6665 11.8183 6.03373 8.42711 10.1874 8.42711C14.3411 8.42711 17.7081 11.8176 17.7081 15.9997ZM25.9585 15.9997C25.9585 19.9362 24.2749 23.1286 22.1981 23.1286C20.1212 23.1286 18.4376 19.9362 18.4376 15.9997C18.4376 12.0631 20.121 8.87069 22.1978 8.87069C24.2747 8.87069 25.9583 12.0621 25.9583 15.9997H25.9585ZM29.3332 15.9997C29.3332 19.5258 28.7411 22.3861 28.0106 22.3861C27.2801 22.3861 26.6883 19.5266 26.6883 15.9997C26.6883 12.4727 27.2803 9.61323 28.0106 9.61323C28.7409 9.61323 29.3332 12.4725 29.3332 15.9997Z"
    fill="#929292" />
</svg>