<svg width="56" height="56" viewBox="0 0 56 56" fill="none" xmlns="http://www.w3.org/2000/svg">
  <path
    d="M33 35.5H38V33.5C38 31.8431 36.6569 30.5 35 30.5C34.0444 30.5 33.1931 30.9468 32.6438 31.6429M33 35.5H23M33 35.5V33.5C33 32.8438 32.8736 32.217 32.6438 31.6429M23 35.5H18V33.5C18 31.8431 19.3431 30.5 21 30.5C21.9556 30.5 22.8069 30.9468 23.3562 31.6429M23 35.5V33.5C23 32.8438 23.1264 32.217 23.3562 31.6429M23.3562 31.6429C24.0935 29.801 25.8948 28.5 28 28.5C30.1052 28.5 31.9065 29.801 32.6438 31.6429M31 22.5C31 24.1569 29.6569 25.5 28 25.5C26.3431 25.5 25 24.1569 25 22.5C25 20.8431 26.3431 19.5 28 19.5C29.6569 19.5 31 20.8431 31 22.5ZM37 25.5C37 26.6046 36.1046 27.5 35 27.5C33.8954 27.5 33 26.6046 33 25.5C33 24.3954 33.8954 23.5 35 23.5C36.1046 23.5 37 24.3954 37 25.5ZM23 25.5C23 26.6046 22.1046 27.5 21 27.5C19.8954 27.5 19 26.6046 19 25.5C19 24.3954 19.8954 23.5 21 23.5C22.1046 23.5 23 24.3954 23 25.5Z"
    stroke="#6B7280" stroke-width="2" stroke-linecap="round" stroke-linejoin="round" />
</svg>