<svg width="25" height="24" viewBox="0 0 25 24" fill="none" xmlns="http://www.w3.org/2000/svg">
  <path
    d="M5.94709 5.83072L6.19023 4.86073C5.83891 4.77266 5.46744 4.88145 5.21912 5.14511L5.94709 5.83072ZM9.44425 6.70732L9.20111 7.67731C9.72459 7.80853 10.2578 7.50071 10.4059 6.98175L9.44425 6.70732ZM10.4343 3.23818L10.2057 2.26467C9.85266 2.34757 9.5722 2.61507 9.47269 2.96375L10.4343 3.23818ZM14.5657 3.23818L15.5273 2.96375C15.4278 2.61507 15.1473 2.34757 14.7943 2.26467L14.5657 3.23818ZM15.5557 6.70732L14.5941 6.98175C14.7422 7.50071 15.2754 7.80853 15.7988 7.67731L15.5557 6.70732ZM19.0529 5.83071L19.7808 5.1451C19.5325 4.88144 19.161 4.77266 18.8097 4.86072L19.0529 5.83071ZM21.121 9.40774L21.8395 10.1033C22.0914 9.84309 22.183 9.46702 22.0788 9.12015L21.121 9.40774ZM18.6114 12L17.893 11.3044C17.5176 11.6922 17.5176 12.3078 17.893 12.6956L18.6114 12ZM21.121 14.5923L22.0788 14.8798C22.183 14.533 22.0914 14.1569 21.8395 13.8967L21.121 14.5923ZM19.0529 18.1693L18.8097 19.1393C19.161 19.2273 19.5325 19.1186 19.7808 18.8549L19.0529 18.1693ZM15.5557 17.2927L15.7988 16.3227C15.2754 16.1915 14.7422 16.4993 14.5941 17.0182L15.5557 17.2927ZM14.5657 20.7618L14.7943 21.7353C15.1473 21.6524 15.4278 21.3849 15.5273 21.0362L14.5657 20.7618ZM10.4343 20.7618L9.47269 21.0362C9.5722 21.3849 9.85266 21.6524 10.2057 21.7353L10.4343 20.7618ZM9.44425 17.2927L10.4059 17.0182C10.2578 16.4993 9.72459 16.1915 9.20111 16.3227L9.44425 17.2927ZM5.94709 18.1693L5.21912 18.8549C5.46744 19.1186 5.83891 19.2273 6.19023 19.1393L5.94709 18.1693ZM3.87891 14.5923L3.16044 13.8967C2.90853 14.1569 2.817 14.533 2.92115 14.8798L3.87891 14.5923ZM6.38852 12L7.10699 12.6956C7.48236 12.3078 7.48236 11.6922 7.10699 11.3044L6.38852 12ZM3.87891 9.40774L2.92115 9.12016C2.817 9.46703 2.90853 9.8431 3.16044 10.1033L3.87891 9.40774ZM5.70395 6.80071L9.20111 7.67731L9.68739 5.73733L6.19023 4.86073L5.70395 6.80071ZM10.4059 6.98175L11.3959 3.51261L9.47269 2.96375L8.48264 6.43289L10.4059 6.98175ZM10.6629 4.21169C11.2518 4.07339 11.8667 4 12.5 4V2C11.7116 2 10.9434 2.09142 10.2057 2.26467L10.6629 4.21169ZM12.5 4C13.1333 4 13.7481 4.07339 14.337 4.21169L14.7943 2.26467C14.0566 2.09142 13.2883 2 12.5 2V4ZM13.604 3.51261L14.5941 6.98175L16.5173 6.43289L15.5273 2.96375L13.604 3.51261ZM15.7988 7.67731L19.296 6.80071L18.8097 4.86072L15.3126 5.73733L15.7988 7.67731ZM18.3249 6.51632C19.1654 7.40877 19.8023 8.49312 20.1633 9.69532L22.0788 9.12015C21.6266 7.61408 20.8296 6.25868 19.7808 5.1451L18.3249 6.51632ZM20.4026 8.71217L17.893 11.3044L19.3299 12.6956L21.8395 10.1033L20.4026 8.71217ZM17.893 12.6956L20.4026 15.2878L21.8395 13.8967L19.3299 11.3044L17.893 12.6956ZM20.1633 14.3047C19.8023 15.5069 19.1654 16.5912 18.3249 17.4837L19.7808 18.8549C20.8296 17.7413 21.6266 16.3859 22.0788 14.8798L20.1633 14.3047ZM19.296 17.1993L15.7988 16.3227L15.3126 18.2627L18.8097 19.1393L19.296 17.1993ZM14.5941 17.0182L13.604 20.4874L15.5273 21.0362L16.5173 17.5671L14.5941 17.0182ZM14.337 19.7883C13.7481 19.9266 13.1333 20 12.5 20V22C13.2883 22 14.0566 21.9086 14.7943 21.7353L14.337 19.7883ZM12.5 20C11.8667 20 11.2518 19.9266 10.6629 19.7883L10.2057 21.7353C10.9433 21.9086 11.7116 22 12.5 22V20ZM11.3959 20.4874L10.4059 17.0182L8.48264 17.5671L9.47269 21.0362L11.3959 20.4874ZM9.20111 16.3227L5.70395 17.1993L6.19023 19.1393L9.68739 18.2627L9.20111 16.3227ZM6.67505 17.4837C5.83454 16.5912 5.19764 15.5069 4.83666 14.3047L2.92115 14.8798C3.37337 16.3859 4.17034 17.7413 5.21912 18.8549L6.67505 17.4837ZM4.59737 15.2878L7.10699 12.6956L5.67005 11.3044L3.16044 13.8967L4.59737 15.2878ZM7.10699 11.3044L4.59737 8.71218L3.16044 10.1033L5.67005 12.6956L7.10699 11.3044ZM4.83666 9.69533C5.19764 8.49312 5.83454 7.40877 6.67506 6.51633L5.21912 5.14511C4.17034 6.25868 3.37337 7.61409 2.92115 9.12016L4.83666 9.69533ZM9.02785 12C9.02785 13.9176 10.5824 15.4721 12.5 15.4721V13.4721C11.6869 13.4721 11.0278 12.813 11.0278 12H9.02785ZM12.5 8.52787C10.5824 8.52787 9.02785 10.0824 9.02785 12H11.0278C11.0278 11.187 11.6869 10.5279 12.5 10.5279V8.52787ZM15.9721 12C15.9721 10.0824 14.4176 8.52787 12.5 8.52787V10.5279C13.313 10.5279 13.9721 11.187 13.9721 12H15.9721ZM12.5 15.4721C14.4176 15.4721 15.9721 13.9176 15.9721 12H13.9721C13.9721 12.813 13.313 13.4721 12.5 13.4721V15.4721Z"
    fill="#374151" />
</svg>