<svg width="52" height="34" viewBox="0 0 52 34" fill="white" xmlns="http://www.w3.org/2000/svg">
  <path fill-rule="evenodd" clip-rule="evenodd"
    d="M9.23969 8.94538C13.8503 4.49821 21.3256 4.49821 25.9363 8.94538L27.6419 10.5905L27.7137 10.5213L34.4276 16.9972L27.7131 23.4736L27.6419 23.4049L25.9363 25.05C23.1383 27.7488 19.2853 28.8098 15.6578 28.2331L16.6072 25.373L9.184 30.8443C15.2819 34.2929 23.1694 33.6766 28.6276 28.9952L28.6594 29.0258L37.7789 20.2297L51.6638 30.39L41.1302 16.9972L51.6626 3.60577L37.7789 13.7647L28.6606 4.96963L28.6283 5.00077C22.0974 -0.601078 12.0885 -0.382969 5.82847 5.6551C-0.666131 11.9194 -0.66613 22.076 5.82847 28.3403C5.90565 28.4148 5.9834 28.4883 6.06171 28.561L9.96412 25.6936C9.71575 25.4906 9.47402 25.276 9.23969 25.05C4.62906 20.6029 4.62906 13.3926 9.23969 8.94538ZM21.1426 16.9992C21.1426 18.8928 19.5511 20.4278 17.588 20.4278C15.6248 20.4278 14.0334 18.8928 14.0334 16.9992C14.0334 15.1057 15.6248 13.5707 17.588 13.5707C19.5511 13.5707 21.1426 15.1057 21.1426 16.9992Z" />
</svg>