<svg width="10" height="20" viewBox="0 0 10 20" fill="none" xmlns="http://www.w3.org/2000/svg">
  <path
    d="M-7 17C-7.55228 17 -8 16.5523 -8 16L-8 4C-8 3.44772 -7.55229 3 -7 3C-6.44772 3 -6 3.44772 -6 4L-6 16C-6 16.5523 -6.44772 17 -7 17Z"
    fill="currentColor" />
  <path
    d="M3.29289 7.70711C2.90237 7.31658 2.90237 6.68342 3.29289 6.29289C3.68342 5.90237 4.31658 5.90237 4.70711 6.29289L7.70711 9.29289C7.89464 9.48043 8 9.73478 8 10C8 10.2652 7.89464 10.5196 7.70711 10.7071L4.70711 13.7071C4.31658 14.0976 3.68342 14.0976 3.29289 13.7071C2.90237 13.3166 2.90237 12.6834 3.29289 12.2929L4.58579 11L-3 11C-3.55229 11 -4 10.5523 -4 10C-4 9.44771 -3.55228 9 -3 9L4.58579 9L3.29289 7.70711Z"
    fill="currentColor" />
</svg>
