<svg width="17" height="14" viewBox="0 0 17 14" fill="#6B7280" xmlns="http://www.w3.org/2000/svg">
  <path
    d="M14.8438 3.75C15.4688 3.28125 16.0312 2.71875 16.4688 2.0625C15.9062 2.3125 15.25 2.5 14.5938 2.5625C15.2812 2.15625 15.7812 1.53125 16.0312 0.75C15.4062 1.125 14.6875 1.40625 13.9688 1.5625C13.3438 0.90625 12.5 0.53125 11.5625 0.53125C9.75 0.53125 8.28125 2 8.28125 3.8125C8.28125 4.0625 8.3125 4.3125 8.375 4.5625C5.65625 4.40625 3.21875 3.09375 1.59375 1.125C1.3125 1.59375 1.15625 2.15625 1.15625 2.78125C1.15625 3.90625 1.71875 4.90625 2.625 5.5C2.09375 5.46875 1.5625 5.34375 1.125 5.09375V5.125C1.125 6.71875 2.25 8.03125 3.75 8.34375C3.5 8.40625 3.1875 8.46875 2.90625 8.46875C2.6875 8.46875 2.5 8.4375 2.28125 8.40625C2.6875 9.71875 3.90625 10.6562 5.34375 10.6875C4.21875 11.5625 2.8125 12.0938 1.28125 12.0938C1 12.0938 0.75 12.0625 0.5 12.0312C1.9375 12.9688 3.65625 13.5 5.53125 13.5C11.5625 13.5 14.8438 8.53125 14.8438 4.1875C14.8438 4.03125 14.8438 3.90625 14.8438 3.75Z" />
</svg>