<svg width="20" height="20" viewBox="0 0 20 20" fill="currentColor" xmlns="http://www.w3.org/2000/svg">
  <path fill-rule="evenodd" clip-rule="evenodd" d="M0.566386 0.532951C0.63084 0.624916 2.12351 2.79755 3.88345 5.361C5.64338 7.92446 7.27115 10.2951 7.50074 10.6291C7.73031 10.9632 7.91814 11.2432 7.91814 11.2514C7.91814 11.2596 7.83265 11.365 7.72817 11.4856C7.62369 11.6062 7.32939 11.9477 7.07421 12.2443C6.81901 12.541 6.38881 13.0411 6.1182 13.3556C5.84762 13.6701 5.37156 14.2236 5.0603 14.5855C4.74906 14.9475 4.18936 15.5983 3.81651 16.0317C2.66337 17.3722 2.49696 17.5659 1.61915 18.5882C1.15044 19.1342 0.700968 19.6561 0.620353 19.7482C0.539738 19.8402 0.473774 19.9252 0.473774 19.937C0.473774 19.9508 0.768183 19.9584 1.30325 19.9584H2.1327L3.04461 18.8957C3.54616 18.3112 4.04092 17.7359 4.14406 17.6172C4.36711 17.3606 6.0681 15.3814 6.21107 15.2122C6.26582 15.1474 6.34533 15.0551 6.38778 15.0072C6.43024 14.9592 6.76489 14.5704 7.13146 14.1432C7.498 13.716 7.80799 13.3559 7.82027 13.3431C7.83257 13.3304 8.02662 13.1046 8.2515 12.8415C8.47638 12.5783 8.66733 12.363 8.67581 12.363C8.68431 12.363 9.8395 14.0356 11.2429 16.0798C12.6464 18.124 13.8197 19.8328 13.8503 19.8771L13.906 19.9575L16.7512 19.958C19.091 19.9584 19.5945 19.9534 19.5855 19.9301C19.576 19.9053 18.2129 17.917 14.7157 12.827C12.1982 9.16268 11.8634 8.67027 11.873 8.64529C11.8823 8.62099 12.2252 8.21992 14.4797 5.59657C14.8664 5.14658 15.3995 4.52594 15.6643 4.21737C15.9291 3.90881 16.1965 3.59809 16.2585 3.52688C16.3204 3.45568 16.6463 3.07698 16.9826 2.68535C17.3189 2.29371 17.8906 1.62824 18.2531 1.20655C18.6155 0.784852 18.9254 0.423163 18.9417 0.402772C18.9696 0.367881 18.9222 0.365723 18.1288 0.365723H17.2863L16.9115 0.802675C16.4128 1.3842 15.5113 2.43286 15.2553 2.72919C15.1422 2.86013 15.0011 3.02468 14.9417 3.09485C14.8824 3.16502 14.7653 3.30064 14.6816 3.39623C14.5978 3.49182 14.1758 3.98272 13.7437 4.4871C13.3116 4.99148 12.9522 5.40901 12.9449 5.41495C12.9377 5.42088 12.8451 5.52827 12.7392 5.65362C12.5539 5.87285 12.3654 6.0923 11.5007 7.09511C11.1211 7.5353 11.1016 7.5542 11.0696 7.51374C11.0512 7.49044 9.93891 5.87268 8.59785 3.91876L6.15955 0.366176L3.30438 0.365939L0.449219 0.365723L0.566386 0.532951ZM2.7948 1.69798C2.81625 1.73072 3.3497 2.49546 3.98027 3.39742C5.17618 5.10802 9.87562 11.8341 12.8979 16.1607C13.8637 17.5433 14.6657 18.6868 14.6801 18.7017C14.7007 18.723 14.9819 18.7277 15.994 18.7233L17.2818 18.7177L13.912 13.8951C12.0585 11.2426 9.37508 7.40227 7.94874 5.361L5.35538 1.64961L4.05562 1.64404L2.75585 1.63847L2.7948 1.69798Z" fill="#18ACC6"/>
</svg>
