<svg width="32" height="32" viewBox="0 0 32 32" fill="none" xmlns="http://www.w3.org/2000/svg">
  <rect y="3.05176e-05" width="32" height="32" rx="5.33333" fill="#D1D5DB" fill-opacity="0.3" />
  <path
    d="M24.474 11.6554C24.4875 11.8449 24.4875 12.0344 24.4875 12.2239C24.4875 18.0039 20.0882 24.6639 12.0476 24.6639C9.57039 24.6639 7.26921 23.9464 5.3335 22.7011C5.68546 22.7417 6.02383 22.7552 6.38933 22.7552C8.4333 22.7552 10.3149 22.0649 11.8174 20.8872C9.89526 20.8466 8.28442 19.5877 7.72942 17.8551C8.00017 17.8956 8.27088 17.9227 8.55518 17.9227C8.94772 17.9227 9.3403 17.8686 9.70576 17.7738C7.70238 17.3677 6.19979 15.608 6.19979 13.4828V13.4287C6.78184 13.7535 7.45871 13.9566 8.17609 13.9836C6.99842 13.1985 6.22687 11.8584 6.22687 10.3423C6.22687 9.53015 6.44342 8.78565 6.82246 8.13589C8.97476 10.789 12.21 12.5217 15.8377 12.7112C15.77 12.3863 15.7294 12.0479 15.7294 11.7095C15.7294 9.30002 17.6787 7.33727 20.1017 7.33727C21.3606 7.33727 22.4976 7.86518 23.2963 8.71798C24.2844 8.52848 25.2319 8.16298 26.0712 7.66214C25.7463 8.6774 25.056 9.53019 24.1491 10.0716C25.0289 9.9769 25.8817 9.73319 26.6668 9.39481C26.0713 10.2611 25.3268 11.0327 24.474 11.6554Z"
    fill="#929292" />
</svg>