<svg width="24" height="24" viewBox="0 0 24 24" fill="#D1D5DB" xmlns="http://www.w3.org/2000/svg">
  <path fill-rule="evenodd" clip-rule="evenodd"
    d="M1.75835 5C1.39939 5 1.15738 5.36703 1.29878 5.69696L1.51297 6.19673L6.11446 16.9336C6.19325 17.1174 6.37402 17.2366 6.57404 17.2366H8.65036C8.85037 17.2366 9.03114 17.1174 9.10993 16.9336L13.7114 6.19673L13.9256 5.69696C14.067 5.36703 13.825 5 13.466 5L11.0125 5C10.9965 5 10.982 5.00955 10.9757 5.02428L8.07177 11.8001C7.89861 12.2042 7.32579 12.2042 7.15263 11.8001L4.24868 5.02428C4.24237 5.00955 4.22789 5 4.21187 5L1.75835 5ZM20.5917 8.86747C20.7331 8.53753 20.4911 8.17051 20.1322 8.17051H19.5909H14.8405C14.6405 8.17051 14.4597 8.2897 14.3809 8.47355L13.1155 11.4262C13.0576 11.5614 13.0621 11.7152 13.1279 11.8467L15.4467 16.4845C15.5026 16.5963 15.5065 16.7271 15.4572 16.842C15.3902 16.9983 15.2366 17.0996 15.0665 17.0996H12.5191C12.3191 17.0996 12.1383 17.2188 12.0595 17.4027L10.9893 19.8998C10.9536 19.9832 11.0148 20.076 11.1055 20.076H17.72C17.92 20.076 18.1008 19.9568 18.1796 19.773L19.1216 17.5748C19.1796 17.4396 19.1751 17.2858 19.1093 17.1542L16.4519 11.8395C16.389 11.7136 16.3846 11.5663 16.4401 11.4369C16.5155 11.261 16.6885 11.1469 16.88 11.1469H19.5909C19.6054 11.1469 19.6185 11.1382 19.6243 11.1249L19.7708 10.7831L20.5917 8.86747Z" />
  <path d="M18.5 1V3.5M18.5 3.5V6M18.5 3.5H21M18.5 3.5H16" stroke="#6B7280" stroke-linecap="round"
    stroke-linejoin="round" />
</svg>