<svg width="50" height="50" viewBox="0 0 50 50" fill="none" xmlns="http://www.w3.org/2000/svg">
<path d="M7.49238 26.4105C7.1946 26.4147 6.95662 26.6595 6.96082 26.9573C6.96503 27.2551 7.20984 27.4931 7.50762 27.4889L7.49238 26.4105ZM35.8866 26.9301C36.0942 26.7165 36.0894 26.3751 35.8759 26.1676L32.3961 22.7847C32.1826 22.5771 31.8412 22.582 31.6336 22.7955C31.426 23.009 31.4308 23.3504 31.6444 23.558L34.7375 26.565L31.7305 29.6581C31.5229 29.8716 31.5278 30.213 31.7413 30.4206C31.9548 30.6282 32.2962 30.6234 32.5038 30.4098L35.8866 26.9301ZM7.50762 27.4889L35.5076 27.0934L35.4924 26.015L7.49238 26.4105L7.50762 27.4889Z" fill="#9CA3AF"/>
</svg>
