<svg width="16" height="16" viewBox="0 0 16 16" fill="none" xmlns="http://www.w3.org/2000/svg">
  <rect width="16" height="16" rx="5.33333" fill="#D1D5DB" />
  <path
    d="M14.6668 7.97076C14.6726 9.2893 14.2873 10.58 13.5596 11.6795C12.8318 12.7791 11.7944 13.6381 10.5784 14.1481C9.36249 14.658 8.02262 14.7959 6.72828 14.5444C5.43395 14.2928 4.24327 13.6631 3.30683 12.7348C2.37039 11.8066 1.73025 10.6215 1.46735 9.32937C1.20446 8.03729 1.33062 6.69627 1.82988 5.47588C2.32914 4.2555 3.17907 3.21058 4.27221 2.47325C5.36534 1.73592 6.65257 1.33931 7.97111 1.33356C9.73915 1.32586 11.4378 2.02079 12.6935 3.2655C13.9492 4.5102 14.659 6.20273 14.6668 7.97076Z"
    fill="#8DC63F" />
  <path
    d="M14.1668 7.97319C14.1723 9.19265 13.8161 10.3864 13.1432 11.4034C12.4703 12.4204 11.5109 13.215 10.3864 13.6868C9.26186 14.1585 8.02269 14.2862 6.82559 14.0537C5.62848 13.8212 4.52721 13.239 3.66103 12.3806C2.79485 11.5221 2.20268 10.4262 1.9594 9.2312C1.71611 8.03624 1.83264 6.79597 2.29425 5.66724C2.75586 4.53851 3.54181 3.57201 4.55272 2.88996C5.56363 2.20792 6.75409 1.84097 7.97355 1.83551C9.60868 1.82832 11.1797 2.47088 12.3411 3.62188C13.5026 4.77288 14.1593 6.33806 14.1668 7.97319V7.97319Z"
    fill="#D2D2D2" />
  <path
    d="M8.11376 2.23479C8.50571 2.16522 8.90684 2.16522 9.29879 2.23479C9.69453 2.29746 10.0771 2.42562 10.4307 2.61402C10.7824 2.80726 11.0862 3.06958 11.3886 3.31547C11.6911 3.56136 11.992 3.81305 12.2785 4.08842C12.5709 4.35949 12.8261 4.66814 13.0374 5.00629C13.255 5.34177 13.4333 5.70113 13.5688 6.0773C13.8263 6.83383 13.9157 7.6488 13.7872 8.4261H13.749C13.62 7.65556 13.4452 6.92127 13.1693 6.22272C13.0398 5.87095 12.8875 5.52803 12.7133 5.19615C12.5315 4.86421 12.3312 4.54277 12.1133 4.23334C11.8917 3.92053 11.6201 3.64633 11.3094 3.42175C10.9964 3.19856 10.6365 3.05412 10.2882 2.91692C9.93985 2.77972 9.59444 2.63769 9.23116 2.53334C8.86787 2.429 8.49879 2.35074 8.11328 2.27489L8.11376 2.23479Z"
    fill="#E9E9E9" />
  <path
    d="M11.128 5.79694C10.6807 5.66747 10.2169 5.4839 9.74733 5.29839C9.72027 5.18052 9.61593 5.03366 9.40481 4.85443C9.09805 4.58825 8.52172 4.59501 8.02365 4.71288C7.4739 4.58341 6.9309 4.53752 6.40965 4.66457C2.14636 5.83897 4.56375 8.70419 2.99854 11.5844C3.22124 12.0568 5.62172 14.8134 9.09515 14.0738C9.09515 14.0738 7.90723 11.2192 10.5879 9.84911C12.7623 8.73366 14.3333 6.66989 11.128 5.79694Z"
    fill="#8BC53F" />
  <path
    d="M11.6546 7.67156C11.6549 7.72267 11.64 7.77273 11.6118 7.81539C11.5837 7.85805 11.5435 7.8914 11.4964 7.91122C11.4493 7.93105 11.3973 7.93646 11.3471 7.92677C11.297 7.91708 11.2508 7.89272 11.2144 7.85678C11.1781 7.82084 11.1532 7.77492 11.1429 7.72484C11.1327 7.67477 11.1375 7.62277 11.1568 7.57544C11.1761 7.5281 11.209 7.48755 11.2514 7.45892C11.2937 7.43028 11.3436 7.41484 11.3947 7.41455C11.4632 7.4143 11.529 7.4412 11.5777 7.48937C11.6265 7.53754 11.6541 7.60305 11.6546 7.67156Z"
    fill="white" />
  <path
    d="M8.02344 4.71054C8.33407 4.73276 9.45726 5.09701 9.74712 5.29605C9.50557 4.59556 8.69252 4.50232 8.02344 4.71054Z"
    fill="#009345" />
  <path
    d="M8.31911 6.48231C8.31921 6.71814 8.24936 6.9487 8.11841 7.14483C7.98746 7.34096 7.80129 7.49386 7.58344 7.58417C7.36559 7.67448 7.12585 7.69816 6.89454 7.65221C6.66323 7.60626 6.45074 7.49275 6.28395 7.32603C6.11716 7.15931 6.00356 6.94686 5.95752 6.71557C5.91147 6.48428 5.93505 6.24453 6.02528 6.02665C6.11551 5.80876 6.26832 5.62252 6.4644 5.49149C6.66048 5.36047 6.89101 5.29053 7.12684 5.29053C7.28339 5.29046 7.43842 5.32124 7.58307 5.38111C7.72772 5.44097 7.85916 5.52875 7.96988 5.63942C8.08059 5.7501 8.16842 5.8815 8.22835 6.02612C8.28827 6.17075 8.31911 6.32576 8.31911 6.48231Z"
    fill="white" />
  <path
    d="M7.96539 6.49294C7.96539 6.65881 7.9162 6.82096 7.82405 6.95887C7.7319 7.09678 7.60092 7.20428 7.44767 7.26775C7.29443 7.33123 7.12581 7.34783 6.96312 7.31547C6.80044 7.28312 6.65101 7.20324 6.53372 7.08596C6.41643 6.96867 6.33656 6.81924 6.3042 6.65655C6.27184 6.49387 6.28845 6.32525 6.35192 6.17201C6.4154 6.01876 6.52289 5.88779 6.66081 5.79563C6.79872 5.70348 6.96087 5.6543 7.12674 5.6543C7.34916 5.6543 7.56247 5.74265 7.71975 5.89993C7.87703 6.05721 7.96539 6.27052 7.96539 6.49294Z"
    fill="#58595B" />
  <path
    d="M12.62 8.1975C11.6538 8.87817 10.5553 9.3946 8.99684 9.3946C8.26737 9.3946 8.11954 8.62165 7.63742 8.99943C7.38862 9.19556 6.51133 9.63421 5.81519 9.60088C5.11906 9.56755 3.99056 9.15933 3.67606 7.67334C3.55143 9.15933 3.48766 10.254 2.92969 11.5086C4.0408 13.2878 6.69007 14.6603 9.0949 14.069C8.83645 12.2647 10.4133 10.4975 11.3017 9.59315C11.6398 9.25064 12.2823 8.6917 12.62 8.19653V8.1975Z"
    fill="#8BC53F" />
  <path
    d="M12.5825 8.24154C12.2825 8.51497 11.9255 8.71738 11.5622 8.89613C11.1945 9.07072 10.8111 9.21031 10.4172 9.31303C10.023 9.41497 9.61194 9.49178 9.19551 9.4541C8.77909 9.41642 8.35348 9.27487 8.07764 8.96279L8.09068 8.94782C8.42884 9.16714 8.81918 9.24444 9.20759 9.25555C9.60128 9.26752 9.99506 9.23511 10.3815 9.15893C10.7719 9.07721 11.1537 8.95914 11.5221 8.80627C11.8907 8.6541 12.2554 8.47777 12.5694 8.22656L12.5825 8.24154Z"
    fill="#58595B" />
  <g style="mix-blend-mode:color">
    <rect width="16" height="16" rx="5.33" fill="#D9D9D9" />
  </g>
</svg>