<svg width="16" height="16" viewBox="0 0 16 16" fill="none" xmlns="http://www.w3.org/2000/svg">
  <rect width="16" height="16" rx="5.33333" fill="#2B6AFF" />
  <path fill-rule="evenodd" clip-rule="evenodd"
    d="M12.29 9.17073C12.0807 9.30302 11.8343 9.31941 11.6469 9.21376C11.409 9.07941 11.2782 8.76478 11.2782 8.32722V7.01805C11.2782 6.38585 11.0282 5.936 10.6103 5.81454C9.90196 5.6082 9.36928 6.47483 9.16908 6.80029L7.91991 8.82566V6.35015C7.90586 5.78059 7.72089 5.4399 7.36967 5.33717C7.13728 5.26927 6.78957 5.29649 6.45181 5.81337L3.65318 10.3072C3.27851 9.59594 3.08319 8.80393 3.0842 8C3.0842 5.29298 5.25357 3.09083 7.91991 3.09083C10.5863 3.09083 12.7553 5.29298 12.7553 8C12.7553 8.00468 12.7565 8.00878 12.7568 8.01317C12.7568 8.01785 12.7559 8.02195 12.7562 8.02663C12.7814 8.55083 12.6116 8.96761 12.29 9.17073ZM13.8298 8.00029V7.98654L13.8295 7.97307C13.8145 4.67629 11.1696 2 7.91962 2C4.66118 2 2.00977 4.69151 2.00977 8C2.00977 11.3082 4.66118 14 7.91991 14C9.41523 14 10.8424 13.4316 11.9379 12.3999C12.1556 12.195 12.1685 11.85 11.9665 11.6293C11.919 11.5769 11.8615 11.5344 11.7974 11.5045C11.7332 11.4746 11.6638 11.4578 11.5931 11.4551C11.5224 11.4524 11.4518 11.4638 11.3856 11.4887C11.3194 11.5135 11.2588 11.5514 11.2073 11.6C10.3193 12.4409 9.14285 12.9094 7.91991 12.9092C6.4922 12.9092 5.20762 12.2773 4.32167 11.2751L6.84547 7.22263V9.09083C6.84547 9.98819 7.19347 10.2782 7.48528 10.3631C7.77738 10.448 8.22372 10.39 8.6923 9.62907L10.0805 7.37863C10.125 7.30605 10.166 7.24341 10.2034 7.18927V8.32722C10.2034 9.16605 10.5394 9.83688 11.1251 10.1673C11.6531 10.4653 12.3169 10.4383 12.8578 10.0971C13.5134 9.68293 13.8666 8.9199 13.8298 8.00029Z"
    fill="white" />
</svg>