<svg width="24" height="24" viewBox="0 0 24 24" fill="none" xmlns="http://www.w3.org/2000/svg">
  <path
    d="M21 12C21 13.78 20.4722 15.5201 19.4832 17.0001C18.4943 18.4802 17.0887 19.6337 15.4442 20.3149C13.7996 20.9961 11.99 21.1743 10.2442 20.8271C8.49836 20.4798 6.89471 19.6226 5.63604 18.364C4.37737 17.1053 3.5202 15.5016 3.17293 13.7558C2.82567 12.01 3.0039 10.2004 3.68508 8.55585C4.36627 6.91131 5.51983 5.50571 6.99987 4.51677C8.47991 3.52784 10.22 3 12 3L12 7.86C11.1812 7.86 10.3808 8.10281 9.69994 8.55772C9.01912 9.01262 8.48849 9.6592 8.17514 10.4157C7.86179 11.1722 7.77981 12.0046 7.93955 12.8077C8.09929 13.6108 8.49359 14.3484 9.07258 14.9274C9.65157 15.5064 10.3892 15.9007 11.1923 16.0605C11.9954 16.2202 12.8278 16.1382 13.5843 15.8249C14.3408 15.5115 14.9874 14.9809 15.4423 14.3001C15.8972 13.6192 16.14 12.8188 16.14 12H21Z"
    stroke="#D1D5DB" stroke-width="2" stroke-linecap="round" stroke-linejoin="round" />
  <path d="M16 3C17.3261 3 18.5979 3.52678 19.5355 4.46447C20.4732 5.40215 21 6.67392 21 8L16 8L16 3Z" stroke="#D1D5DB"
    stroke-width="2" stroke-linecap="round" stroke-linejoin="round" />
</svg>