<svg width="20" height="16" viewBox="0 0 20 16" fill="#8B5CF6" xmlns="http://www.w3.org/2000/svg">
  <path fill-rule="evenodd" clip-rule="evenodd"
    d="M0.758352 1.02352e-06C0.399394 1.0549e-06 0.157378 0.367026 0.298778 0.696961L0.512965 1.19673L5.11446 11.9336C5.19325 12.1174 5.37402 12.2366 5.57404 12.2366H7.65036C7.85037 12.2366 8.03114 12.1174 8.10993 11.9336L12.7114 1.19673L12.9256 0.69696C13.067 0.367025 12.825 -3.1381e-08 12.466 0L10.0125 2.14493e-07C9.99651 2.15894e-07 9.98203 0.00954979 9.97571 0.0242782L7.07177 6.80014C6.89861 7.2042 6.32579 7.2042 6.15263 6.80014L3.24868 0.0242782C3.24237 0.00955012 3.22789 8.07625e-07 3.21187 8.09026e-07L0.758352 1.02352e-06ZM19.5917 3.86747C19.7331 3.53753 19.4911 3.17051 19.1322 3.17051H18.5909H13.8405C13.6405 3.17051 13.4597 3.2897 13.3809 3.47355L12.1155 6.42618C12.0576 6.56136 12.0621 6.7152 12.1279 6.84674L14.4467 11.4845C14.5026 11.5963 14.5065 11.7271 14.4572 11.842C14.3902 11.9983 14.2366 12.0996 14.0665 12.0996H11.5191C11.3191 12.0996 11.1383 12.2188 11.0595 12.4027L9.98932 14.8998C9.95357 14.9832 10.0148 15.076 10.1055 15.076H16.72C16.92 15.076 17.1008 14.9568 17.1796 14.773L18.1216 12.5748C18.1796 12.4396 18.1751 12.2858 18.1093 12.1542L15.4519 6.83951C15.389 6.71359 15.3846 6.56635 15.4401 6.43695C15.5155 6.26098 15.6885 6.14688 15.88 6.14688H18.5909C18.6054 6.14688 18.6185 6.13823 18.6243 6.1249L18.7708 5.78308L19.5917 3.86747Z" />
</svg>