<svg width="25" height="24" viewBox="0 0 25 24" fill="none" xmlns="http://www.w3.org/2000/svg">
<path d="M19.5661 6.09583C18.3039 5.54102 16.9543 5.13778 15.5434 4.9082C15.37 5.20253 15.1676 5.59841 15.0281 5.91334C13.5282 5.70143 12.042 5.70143 10.5698 5.91334C10.4302 5.59841 10.2231 5.20253 10.0484 4.9082C8.63586 5.13778 7.28472 5.54249 6.02254 6.09878C3.4767 9.71317 2.78656 13.2378 3.13163 16.7124C4.82017 17.8971 6.45656 18.6167 8.06534 19.0876C8.46255 18.574 8.81682 18.0281 9.12202 17.4526C8.54077 17.2451 7.98406 16.9891 7.45802 16.6917C7.59758 16.5947 7.73408 16.4931 7.86597 16.3886C11.0744 17.7984 14.5603 17.7984 17.7304 16.3886C17.8637 16.4931 18.0003 16.5947 18.1383 16.6917C17.6107 16.9905 17.0525 17.2466 16.4712 17.4541C16.7764 18.0281 17.1291 18.5755 17.5279 19.0891C19.1382 18.6182 20.7761 17.8985 22.4647 16.7124C22.8696 12.6845 21.773 9.1922 19.5661 6.09583ZM9.5591 14.5755C8.59598 14.5755 7.80616 13.7308 7.80616 12.7021C7.80616 11.6734 8.57911 10.8272 9.5591 10.8272C10.5391 10.8272 11.3289 11.6719 11.312 12.7021C11.3136 13.7308 10.5391 14.5755 9.5591 14.5755ZM16.0372 14.5755C15.0741 14.5755 14.2842 13.7308 14.2842 12.7021C14.2842 11.6734 15.0572 10.8272 16.0372 10.8272C17.0172 10.8272 17.807 11.6719 17.7902 12.7021C17.7902 13.7308 17.0172 14.5755 16.0372 14.5755Z" fill="#5865F2"/>
</svg>
