<svg width="56" height="58" viewBox="0 0 56 58" fill="none" xmlns="http://www.w3.org/2000/svg">
  <g clip-path="url(#clip0_2028_86738)">
    <g opacity="0.5" clip-path="url(#clip1_2028_86738)">
      <path
        d="M24.5646 38.8268L40.6633 43.1405C42.4415 43.617 44.2693 42.5617 44.7458 40.7835L48.8808 25.3515C48.9952 24.9246 48.9353 24.4696 48.7143 24.0868L42.3336 13.0351C42.1126 12.6523 41.7485 12.373 41.3216 12.2586L32.3291 9.84906C30.5509 9.37259 28.7231 10.4279 28.2466 12.2061L22.2075 34.7443C21.7311 36.5226 22.7863 38.3504 24.5646 38.8268Z"
        fill="#F3F4F6" />
      <path
        d="M31.6666 25.2007L41.3259 27.7889M29.9411 31.6402L39.6004 34.2284M40.6633 43.1405L24.5646 38.8268C22.7863 38.3504 21.7311 36.5226 22.2075 34.7443L28.2466 12.2061C28.7231 10.4279 30.5509 9.37259 32.3291 9.84906L41.3216 12.2586C41.7485 12.373 42.1126 12.6523 42.3336 13.0351L48.7143 24.0868C48.9353 24.4696 48.9952 24.9246 48.8808 25.3515L44.7458 40.7835C44.2693 42.5617 42.4415 43.617 40.6633 43.1405Z"
        stroke="#D1D5DB" stroke-width="2" stroke-linecap="round" stroke-linejoin="round" />
    </g>
    <path
      d="M18 47H38C40.2091 47 42 45.2091 42 43V23.8284C42 23.298 41.7893 22.7893 41.4142 22.4142L30.5858 11.5858C30.2107 11.2107 29.702 11 29.1716 11H18C15.7909 11 14 12.7909 14 15V43C14 45.2091 15.7909 47 18 47Z"
      fill="#F3F4F6" />
    <path
      d="M22 29H34M22 37H34M38 47H18C15.7909 47 14 45.2091 14 43V15C14 12.7909 15.7909 11 18 11H29.1716C29.702 11 30.2107 11.2107 30.5858 11.5858L41.4142 22.4142C41.7893 22.7893 42 23.298 42 23.8284V43C42 45.2091 40.2091 47 38 47Z"
      stroke="#D1D5DB" stroke-width="2" stroke-linecap="round" stroke-linejoin="round" />
  </g>
  <defs>
    <clipPath id="clip0_2028_86738">
      <rect width="56" height="58" fill="white" />
    </clipPath>
    <clipPath id="clip1_2028_86738">
      <rect width="40" height="40" fill="white" transform="translate(22.3535 2) rotate(15)" />
    </clipPath>
  </defs>
</svg>