<svg width="24" height="24" viewBox="0 0 24 24" fill="none" xmlns="http://www.w3.org/2000/svg">
  <path
    d="M11.901 2.86719C6.74524 2.86719 2.56445 7.04724 2.56445 12.2038C2.56445 16.329 5.23966 19.8287 8.94939 21.0633C9.41598 21.1497 9.58733 20.8607 9.58733 20.6141C9.58733 20.3915 9.57861 19.6559 9.57466 18.8758C6.97714 19.4406 6.42905 17.7742 6.42905 17.7742C6.00435 16.695 5.39241 16.4081 5.39241 16.4081C4.54534 15.8286 5.45626 15.8405 5.45626 15.8405C6.39383 15.9064 6.88752 16.8027 6.88752 16.8027C7.72023 18.23 9.07167 17.8173 9.60446 17.5788C9.68823 16.9753 9.93024 16.5635 10.1972 16.3304C8.12348 16.0942 5.94343 15.2936 5.94343 11.7161C5.94343 10.6969 6.30816 9.86392 6.90546 9.21009C6.80851 8.97489 6.48895 8.02531 6.99589 6.73926C6.99589 6.73926 7.77991 6.48832 9.56411 7.69631C10.3088 7.48938 11.1076 7.38569 11.901 7.38217C12.6945 7.38569 13.4938 7.48938 14.24 7.69631C16.0221 6.48832 16.805 6.73926 16.805 6.73926C17.3132 8.02531 16.9935 8.97489 16.8965 9.21009C17.4951 9.86392 17.8574 10.6968 17.8574 11.7161C17.8574 15.3021 15.6732 16.0918 13.5942 16.3229C13.9291 16.6126 14.2275 17.1809 14.2275 18.0519C14.2275 19.3011 14.2166 20.3066 14.2166 20.6141C14.2166 20.8625 14.3847 21.1537 14.858 21.062C18.5657 19.826 21.2375 16.3276 21.2375 12.2038C21.2375 7.04724 17.0573 2.86719 11.901 2.86719Z"
    fill="#6B7280" />
</svg>