<svg width="24" height="24" viewBox="0 0 24 24" fill="#3B82F6" xmlns="http://www.w3.org/2000/svg">
  <path
    d="M18 5C18.5312 5 19 5.46875 19 6.03125V18C19 18.5625 18.5312 19 18 19H5.96875C5.4375 19 5 18.5625 5 18V6.03125C5 5.46875 5.4375 5 5.96875 5H18ZM9.21875 17V10.3438H7.15625V17H9.21875ZM8.1875 9.40625C8.84375 9.40625 9.375 8.875 9.375 8.21875C9.375 7.5625 8.84375 7 8.1875 7C7.5 7 6.96875 7.5625 6.96875 8.21875C6.96875 8.875 7.5 9.40625 8.1875 9.40625ZM17 17V13.3438C17 11.5625 16.5938 10.1562 14.5 10.1562C13.5 10.1562 12.8125 10.7188 12.5312 11.25H12.5V10.3438H10.5312V17H12.5938V13.7188C12.5938 12.8438 12.75 12 13.8438 12C14.9062 12 14.9062 13 14.9062 13.75V17H17Z" />
</svg>