<svg width="24" height="24" viewBox="0 0 24 24" fill="none" xmlns="http://www.w3.org/2000/svg">
<path d="M8.8421 20.9989C6.41601 20.9989 4.15448 20.2932 2.25098 19.0757C3.86711 19.1803 6.71923 18.9298 8.49325 17.2377C5.82455 17.1152 4.62102 15.0685 4.46403 14.1938C4.69079 14.2813 5.77222 14.3862 6.38271 14.1413C3.31283 13.3716 2.84188 10.6775 2.94654 9.85533C3.52214 10.2577 4.49892 10.3976 4.88265 10.3626C2.02209 8.31587 3.05119 5.23697 3.55703 4.57221C5.60987 7.41626 8.68645 9.01358 12.4926 9.10243C12.4208 8.78769 12.3829 8.46 12.3829 8.12344C12.3829 5.70806 14.3352 3.75 16.7435 3.75C18.0018 3.75 19.1357 4.28453 19.9316 5.13954C20.7724 4.9425 22.0379 4.48125 22.6565 4.08238C22.3447 5.20198 21.3739 6.13596 20.7867 6.48213C20.7819 6.4703 20.7916 6.4939 20.7867 6.48213C21.3025 6.4041 22.6982 6.13587 23.2496 5.76178C22.9769 6.39076 21.9477 7.43655 21.103 8.02203C21.2602 14.9528 15.9574 20.9989 8.8421 20.9989Z" fill="#47ACDF"/>
</svg>
