<svg width="24" height="24" viewBox="0 0 24 24" fill="#3B82F6" xmlns="http://www.w3.org/2000/svg">
  <path
    d="M18.3438 8.75C18.9688 8.28125 19.5312 7.71875 19.9688 7.0625C19.4062 7.3125 18.75 7.5 18.0938 7.5625C18.7812 7.15625 19.2812 6.53125 19.5312 5.75C18.9062 6.125 18.1875 6.40625 17.4688 6.5625C16.8438 5.90625 16 5.53125 15.0625 5.53125C13.25 5.53125 11.7812 7 11.7812 8.8125C11.7812 9.0625 11.8125 9.3125 11.875 9.5625C9.15625 9.40625 6.71875 8.09375 5.09375 6.125C4.8125 6.59375 4.65625 7.15625 4.65625 7.78125C4.65625 8.90625 5.21875 9.90625 6.125 10.5C5.59375 10.4688 5.0625 10.3438 4.625 10.0938V10.125C4.625 11.7188 5.75 13.0312 7.25 13.3438C7 13.4062 6.6875 13.4688 6.40625 13.4688C6.1875 13.4688 6 13.4375 5.78125 13.4062C6.1875 14.7188 7.40625 15.6562 8.84375 15.6875C7.71875 16.5625 6.3125 17.0938 4.78125 17.0938C4.5 17.0938 4.25 17.0625 4 17.0312C5.4375 17.9688 7.15625 18.5 9.03125 18.5C15.0625 18.5 18.3438 13.5312 18.3438 9.1875C18.3438 9.03125 18.3438 8.90625 18.3438 8.75Z" />
</svg>